<svg width="40" height="40" viewBox="0 0 40 40" fill="none" xmlns="http://www.w3.org/2000/svg">
<g clip-path="url(#clip0_20_582)">
<path fill-rule="evenodd" clip-rule="evenodd" d="M20 3.33333C10.7952 3.33333 3.33333 10.7952 3.33333 20C3.33333 29.2048 10.7952 36.6667 20 36.6667C29.2048 36.6667 36.6667 29.2048 36.6667 20C36.6667 10.7952 29.2048 3.33333 20 3.33333ZM0 20C0 8.95433 8.95433 0 20 0C31.0457 0 40 8.95433 40 20C40 31.0457 31.0457 40 20 40C8.95433 40 0 31.0457 0 20Z" fill="#d4edff"/>
<path fill-rule="evenodd" clip-rule="evenodd" d="M15.9861 37.893C15.8248 37.685 15.8248 35.8311 15.9861 32.3317C14.2595 32.3914 13.1687 32.2715 12.7136 31.9723C12.0308 31.5234 11.3474 30.139 10.7409 29.1633C10.1345 28.1876 8.78858 28.0334 8.24504 27.8153C7.70151 27.5971 7.56507 26.708 9.74275 27.3805C11.9203 28.0529 12.0266 29.884 12.7136 30.3121C13.4005 30.7403 15.0429 30.553 15.7873 30.21C16.5318 29.867 16.477 28.5899 16.6097 28.084C16.7776 27.6117 16.1861 27.507 16.1731 27.5031C15.4462 27.5031 11.6282 26.6728 10.5796 22.9755C9.53083 19.2784 10.8817 16.8618 11.6024 15.823C12.0829 15.1304 12.0404 13.6544 11.4749 11.3948C13.5279 11.1325 15.1122 11.7786 16.2278 13.3335C16.2289 13.3424 17.6904 12.4644 20.0002 12.4644C22.31 12.4644 23.1294 13.1795 23.7618 13.3335C24.3942 13.4874 24.9 10.6118 28.8057 11.3948C27.9902 12.9975 27.3074 15.0001 27.8286 15.823C28.3498 16.6458 30.3954 19.2623 29.1388 22.9755C28.3012 25.4511 26.6544 26.9603 24.1987 27.5031C23.9171 27.593 23.7762 27.738 23.7762 27.938C23.7762 28.238 24.157 28.2708 24.7054 29.6765C25.0711 30.6135 25.0975 33.29 24.7847 37.7059C23.9922 37.9076 23.3757 38.043 22.9351 38.1123C22.1539 38.235 21.3057 38.3039 20.4724 38.3304C19.6391 38.357 19.3497 38.354 18.1975 38.2468C17.4295 38.1753 16.6923 38.0574 15.9861 37.893Z" fill="#d4edff"/>
</g>
<defs>
<clipPath id="clip0_20_582">
<rect width="40" height="40" fill="white"/>
</clipPath>
</defs>
</svg>
