<svg xmlns="http://www.w3.org/2000/svg" fill="none" viewBox="0 0 64 64"><g clip-path="url(#a)"><circle cx="32" cy="32" r="32" fill="#000"/><path fill="#FFB749" fill-rule="evenodd" d="M13 21.51V42.5l6.307-.038v-8.515c.75 0 1.455.03 2.098.48.49.452.879 1.007 1.141 1.627l3.374 6.408H33c-1.404-2.795-2.53-6.33-4.945-8.452a6.3 6.3 0 0 0-1.644-.769 7.9 7.9 0 0 0 2.22-.833c1.755-1.07 2.76-3.027 2.713-5.07a5.9 5.9 0 0 0-.945-3.394c-1.473-2.256-4.465-2.523-6.933-2.434zm8.994 8.502H19.33v-4.314h2.773c1.377-.139 3.077.477 2.982 2.106.064 1.758-1.721 2.109-3.092 2.208" clip-rule="evenodd"/><path fill="#FFB749" d="M39.477 35.089 33 35.467c.126 1.9 1.002 3.693 2.464 5.042q2.172 1.985 7.788 1.985c3.104.088 6.654-.68 8.569-3.337A6.08 6.08 0 0 0 53 35.564c.022-2.38-1.566-4.334-3.696-5.25A29.7 29.7 0 0 0 42.92 28.5a5.8 5.8 0 0 1-2.278-.743c-.738-.497-.564-1.53.093-1.997 1.873-1.24 4.895-.206 5.126 2.143l6.424-.34c-.115-1.795-1.1-3.508-2.65-4.605a11.9 11.9 0 0 0-6.436-1.437 15.1 15.1 0 0 0-5.43.792c-2.16.8-3.94 2.751-3.935 5.14-.04 1.485.682 2.956 1.921 3.91a15.6 15.6 0 0 0 6.384 2.435 9 9 0 0 1 3.483 1.218c.966.715.959 2.151-.026 2.874-1.088.763-2.693.852-3.914.357-1.31-.531-2.077-1.769-2.205-3.158"/></g><defs><clipPath id="a"><path fill="#fff" d="M0 0h64v64H0z"/></clipPath></defs></svg>